<svg xmlns="http://www.w3.org/2000/svg" xmlns:xlink="http://www.w3.org/1999/xlink" width="400" zoomAndPan="magnify" viewBox="0 0 300 299.999988" height="400" preserveAspectRatio="xMidYMid meet" version="1.0"><defs><g/><clipPath id="id1"><path d="M 37.539062 70 L 262.460938 70 L 262.460938 219 L 37.539062 219 Z M 37.539062 70 " clip-rule="nonzero"/></clipPath></defs><g clip-path="url(#id1)"><path fill="#135e6f" d="M 37.539062 88.148438 C 37.539062 87.570312 37.570312 86.992188 37.625 86.417969 C 37.683594 85.84375 37.765625 85.273438 37.878906 84.707031 C 37.992188 84.140625 38.128906 83.578125 38.296875 83.027344 C 38.464844 82.472656 38.65625 81.929688 38.878906 81.398438 C 39.097656 80.863281 39.34375 80.34375 39.617188 79.832031 C 39.886719 79.324219 40.183594 78.828125 40.503906 78.347656 C 40.820312 77.867188 41.164062 77.40625 41.53125 76.957031 C 41.894531 76.511719 42.28125 76.085938 42.6875 75.675781 C 43.09375 75.269531 43.519531 74.878906 43.964844 74.515625 C 44.410156 74.148438 44.871094 73.804688 45.351562 73.484375 C 45.828125 73.164062 46.320312 72.867188 46.828125 72.59375 C 47.335938 72.320312 47.855469 72.074219 48.386719 71.851562 C 48.917969 71.632812 49.460938 71.4375 50.011719 71.269531 C 50.5625 71.101562 51.121094 70.960938 51.683594 70.851562 C 52.25 70.738281 52.816406 70.652344 53.390625 70.597656 C 53.964844 70.539062 54.535156 70.511719 55.113281 70.511719 C 55.6875 70.511719 56.261719 70.539062 56.835938 70.597656 C 57.40625 70.652344 57.976562 70.738281 58.539062 70.851562 C 59.105469 70.960938 59.664062 71.101562 60.214844 71.269531 C 60.765625 71.4375 61.304688 71.632812 61.835938 71.851562 C 62.367188 72.074219 62.886719 72.320312 63.394531 72.59375 C 63.902344 72.867188 64.394531 73.164062 64.875 73.484375 C 65.351562 73.804688 65.816406 74.148438 66.261719 74.515625 C 66.703125 74.878906 67.128906 75.269531 67.539062 75.675781 C 67.945312 76.085938 68.332031 76.511719 68.695312 76.957031 C 69.0625 77.40625 69.402344 77.867188 69.722656 78.347656 C 70.042969 78.828125 70.339844 79.324219 70.609375 79.832031 C 70.878906 80.34375 71.125 80.863281 71.347656 81.398438 C 71.566406 81.929688 71.761719 82.472656 71.925781 83.027344 C 72.09375 83.578125 72.234375 84.140625 72.347656 84.707031 C 72.457031 85.273438 72.542969 85.84375 72.601562 86.417969 C 72.65625 86.992188 72.683594 87.570312 72.683594 88.148438 L 72.683594 102.253906 C 72.683594 103.109375 72.625 103.957031 72.5 104.800781 C 72.378906 105.648438 72.195312 106.476562 71.953125 107.296875 C 71.710938 108.113281 71.410156 108.910156 71.050781 109.683594 C 70.691406 110.460938 70.28125 111.203125 69.816406 111.917969 C 69.351562 112.632812 68.835938 113.308594 68.269531 113.949219 C 67.707031 114.585938 67.101562 115.183594 66.453125 115.734375 C 65.800781 116.285156 65.117188 116.785156 64.394531 117.234375 C 63.671875 117.6875 62.921875 118.082031 62.140625 118.421875 L 62.140625 211.597656 C 62.140625 212.058594 62.097656 212.519531 62.007812 212.972656 C 61.917969 213.425781 61.78125 213.867188 61.605469 214.296875 C 61.429688 214.722656 61.214844 215.128906 60.957031 215.515625 C 60.699219 215.898438 60.410156 216.257812 60.082031 216.585938 C 59.757812 216.910156 59.402344 217.203125 59.015625 217.460938 C 58.632812 217.71875 58.230469 217.9375 57.800781 218.113281 C 57.375 218.289062 56.9375 218.425781 56.484375 218.515625 C 56.03125 218.605469 55.574219 218.652344 55.113281 218.652344 C 54.652344 218.652344 54.195312 218.605469 53.742188 218.515625 C 53.289062 218.425781 52.847656 218.289062 52.421875 218.113281 C 51.996094 217.9375 51.589844 217.71875 51.207031 217.460938 C 50.824219 217.203125 50.46875 216.910156 50.140625 216.585938 C 49.816406 216.257812 49.523438 215.898438 49.269531 215.515625 C 49.011719 215.128906 48.796875 214.722656 48.617188 214.296875 C 48.441406 213.867188 48.308594 213.425781 48.21875 212.972656 C 48.128906 212.519531 48.082031 212.058594 48.082031 211.597656 L 48.082031 118.421875 C 47.304688 118.082031 46.554688 117.6875 45.832031 117.234375 C 45.109375 116.785156 44.421875 116.285156 43.773438 115.734375 C 43.125 115.183594 42.515625 114.585938 41.953125 113.949219 C 41.390625 113.308594 40.875 112.632812 40.410156 111.917969 C 39.945312 111.203125 39.53125 110.460938 39.175781 109.683594 C 38.816406 108.910156 38.515625 108.113281 38.273438 107.296875 C 38.03125 106.476562 37.847656 105.648438 37.722656 104.800781 C 37.601562 103.957031 37.539062 103.109375 37.539062 102.253906 Z M 150 218.652344 C 188.820312 218.652344 220.285156 187.070312 220.285156 148.109375 C 220.285156 109.148438 188.820312 77.566406 150 77.566406 C 111.179688 77.566406 79.714844 109.148438 79.714844 148.109375 C 79.714844 187.070312 111.179688 218.652344 150 218.652344 Z M 199.199219 148.109375 C 199.203125 149.726562 199.121094 151.339844 198.964844 152.949219 C 198.808594 154.558594 198.574219 156.15625 198.257812 157.742188 C 197.945312 159.332031 197.554688 160.898438 197.085938 162.445312 C 196.617188 163.992188 196.078125 165.515625 195.460938 167.011719 C 194.84375 168.503906 194.15625 169.964844 193.398438 171.390625 C 192.636719 172.820312 191.808594 174.203125 190.914062 175.550781 C 190.019531 176.894531 189.0625 178.191406 188.039062 179.445312 C 187.015625 180.695312 185.9375 181.890625 184.796875 183.035156 C 183.65625 184.179688 182.464844 185.265625 181.21875 186.292969 C 179.972656 187.316406 178.679688 188.28125 177.339844 189.179688 C 176 190.078125 174.621094 190.910156 173.199219 191.671875 C 171.777344 192.433594 170.320312 193.125 168.832031 193.746094 C 167.34375 194.363281 165.828125 194.90625 164.285156 195.378906 C 162.742188 195.847656 161.179688 196.238281 159.601562 196.554688 C 158.019531 196.871094 156.425781 197.109375 154.824219 197.265625 C 153.21875 197.425781 151.613281 197.503906 150 197.503906 C 148.386719 197.503906 146.78125 197.425781 145.175781 197.265625 C 143.574219 197.109375 141.980469 196.871094 140.398438 196.554688 C 138.820312 196.238281 137.257812 195.847656 135.714844 195.378906 C 134.171875 194.90625 132.65625 194.363281 131.167969 193.746094 C 129.679688 193.125 128.222656 192.433594 126.800781 191.671875 C 125.378906 190.910156 124 190.078125 122.660156 189.179688 C 121.320312 188.28125 120.027344 187.316406 118.78125 186.292969 C 117.535156 185.265625 116.34375 184.179688 115.203125 183.035156 C 114.0625 181.890625 112.984375 180.695312 111.960938 179.445312 C 110.9375 178.191406 109.980469 176.894531 109.085938 175.550781 C 108.191406 174.203125 107.363281 172.820312 106.601562 171.390625 C 105.84375 169.964844 105.15625 168.503906 104.539062 167.011719 C 103.921875 165.515625 103.382812 163.992188 102.914062 162.445312 C 102.445312 160.898438 102.054688 159.332031 101.742188 157.742188 C 101.425781 156.15625 101.191406 154.558594 101.035156 152.949219 C 100.878906 151.339844 100.796875 149.726562 100.800781 148.109375 C 100.800781 146.492188 100.878906 144.878906 101.039062 143.269531 C 101.195312 141.660156 101.433594 140.0625 101.746094 138.476562 C 102.0625 136.890625 102.453125 135.324219 102.921875 133.777344 C 103.390625 132.230469 103.933594 130.710938 104.550781 129.214844 C 105.167969 127.722656 105.855469 126.261719 106.613281 124.835938 C 107.375 123.410156 108.203125 122.027344 109.097656 120.683594 C 109.992188 119.335938 110.949219 118.039062 111.972656 116.792969 C 112.996094 115.542969 114.078125 114.34375 115.214844 113.203125 C 116.355469 112.058594 117.546875 110.972656 118.792969 109.949219 C 120.039062 108.921875 121.332031 107.960938 122.671875 107.0625 C 124.011719 106.164062 125.390625 105.335938 126.8125 104.574219 C 128.230469 103.8125 129.6875 103.121094 131.175781 102.503906 C 132.664062 101.882812 134.179688 101.339844 135.722656 100.871094 C 137.261719 100.402344 138.824219 100.007812 140.402344 99.695312 C 141.984375 99.378906 143.574219 99.140625 145.179688 98.984375 C 146.78125 98.824219 148.390625 98.746094 150 98.746094 C 151.609375 98.746094 153.21875 98.824219 154.820312 98.984375 C 156.425781 99.140625 158.015625 99.378906 159.597656 99.695312 C 161.175781 100.007812 162.738281 100.402344 164.277344 100.871094 C 165.820312 101.339844 167.335938 101.882812 168.824219 102.503906 C 170.3125 103.121094 171.765625 103.8125 173.1875 104.574219 C 174.609375 105.335938 175.988281 106.164062 177.328125 107.0625 C 178.667969 107.960938 179.960938 108.921875 181.207031 109.949219 C 182.453125 110.972656 183.644531 112.058594 184.785156 113.203125 C 185.921875 114.34375 187.003906 115.542969 188.027344 116.792969 C 189.050781 118.039062 190.007812 119.335938 190.902344 120.683594 C 191.796875 122.027344 192.625 123.410156 193.386719 124.835938 C 194.144531 126.261719 194.832031 127.722656 195.449219 129.214844 C 196.066406 130.710938 196.609375 132.230469 197.078125 133.777344 C 197.546875 135.324219 197.9375 136.890625 198.253906 138.476562 C 198.566406 140.0625 198.804688 141.660156 198.960938 143.269531 C 199.121094 144.878906 199.199219 146.492188 199.199219 148.109375 Z M 206.230469 148.109375 C 206.230469 149.957031 206.140625 151.800781 205.957031 153.640625 C 205.777344 155.480469 205.507812 157.304688 205.148438 159.117188 C 204.789062 160.929688 204.34375 162.722656 203.808594 164.488281 C 203.273438 166.257812 202.652344 167.996094 201.949219 169.703125 C 201.246094 171.410156 200.457031 173.082031 199.589844 174.710938 C 198.722656 176.339844 197.777344 177.925781 196.753906 179.460938 C 195.730469 180.996094 194.632812 182.480469 193.464844 183.910156 C 192.296875 185.339844 191.0625 186.707031 189.761719 188.011719 C 188.457031 189.320312 187.09375 190.558594 185.671875 191.730469 C 184.25 192.90625 182.769531 194.003906 181.238281 195.03125 C 179.707031 196.058594 178.128906 197.007812 176.507812 197.878906 C 174.882812 198.75 173.21875 199.539062 171.519531 200.246094 C 169.816406 200.953125 168.085938 201.574219 166.324219 202.113281 C 164.558594 202.648438 162.777344 203.097656 160.96875 203.457031 C 159.164062 203.816406 157.34375 204.089844 155.511719 204.269531 C 153.679688 204.453125 151.839844 204.542969 150 204.542969 C 148.160156 204.542969 146.320312 204.453125 144.488281 204.269531 C 142.65625 204.089844 140.835938 203.816406 139.03125 203.457031 C 137.222656 203.097656 135.441406 202.648438 133.675781 202.113281 C 131.914062 201.574219 130.183594 200.953125 128.480469 200.246094 C 126.78125 199.539062 125.117188 198.75 123.492188 197.878906 C 121.871094 197.007812 120.292969 196.058594 118.761719 195.03125 C 117.230469 194.003906 115.75 192.90625 114.328125 191.730469 C 112.90625 190.558594 111.542969 189.320312 110.238281 188.011719 C 108.9375 186.707031 107.703125 185.339844 106.535156 183.910156 C 105.367188 182.480469 104.269531 180.996094 103.246094 179.460938 C 102.222656 177.925781 101.277344 176.339844 100.410156 174.710938 C 99.542969 173.082031 98.753906 171.410156 98.050781 169.703125 C 97.347656 167.996094 96.726562 166.257812 96.191406 164.488281 C 95.65625 162.722656 95.210938 160.929688 94.851562 159.117188 C 94.492188 157.304688 94.222656 155.480469 94.042969 153.640625 C 93.859375 151.800781 93.769531 149.957031 93.769531 148.109375 C 93.769531 146.257812 93.859375 144.414062 94.042969 142.578125 C 94.222656 140.738281 94.492188 138.910156 94.851562 137.097656 C 95.210938 135.285156 95.65625 133.496094 96.191406 131.726562 C 96.726562 129.957031 97.347656 128.21875 98.050781 126.511719 C 98.753906 124.804688 99.542969 123.136719 100.410156 121.503906 C 101.277344 119.875 102.222656 118.292969 103.246094 116.753906 C 104.269531 115.21875 105.367188 113.734375 106.535156 112.304688 C 107.703125 110.878906 108.9375 109.511719 110.238281 108.203125 C 111.542969 106.894531 112.90625 105.65625 114.328125 104.484375 C 115.75 103.3125 117.230469 102.210938 118.761719 101.183594 C 120.292969 100.15625 121.871094 99.207031 123.492188 98.335938 C 125.117188 97.464844 126.78125 96.675781 128.480469 95.96875 C 130.183594 95.261719 131.914062 94.640625 133.675781 94.105469 C 135.441406 93.566406 137.222656 93.117188 139.03125 92.757812 C 140.835938 92.398438 142.65625 92.125 144.488281 91.945312 C 146.320312 91.765625 148.160156 91.671875 150 91.671875 C 151.839844 91.671875 153.679688 91.765625 155.511719 91.945312 C 157.34375 92.125 159.164062 92.398438 160.96875 92.757812 C 162.777344 93.117188 164.558594 93.566406 166.324219 94.105469 C 168.085938 94.640625 169.816406 95.261719 171.519531 95.96875 C 173.21875 96.675781 174.882812 97.464844 176.507812 98.335938 C 178.128906 99.207031 179.707031 100.15625 181.238281 101.183594 C 182.769531 102.210938 184.25 103.3125 185.671875 104.484375 C 187.09375 105.65625 188.457031 106.894531 189.761719 108.203125 C 191.0625 109.511719 192.296875 110.878906 193.464844 112.304688 C 194.632812 113.734375 195.730469 115.21875 196.753906 116.753906 C 197.777344 118.292969 198.722656 119.875 199.589844 121.503906 C 200.457031 123.136719 201.246094 124.804688 201.949219 126.511719 C 202.652344 128.21875 203.273438 129.957031 203.808594 131.726562 C 204.34375 133.496094 204.789062 135.285156 205.148438 137.097656 C 205.507812 138.910156 205.777344 140.738281 205.957031 142.578125 C 206.140625 144.414062 206.230469 146.257812 206.230469 148.109375 Z M 251.917969 118.421875 C 252.695312 118.082031 253.445312 117.6875 254.167969 117.234375 C 254.890625 116.785156 255.578125 116.285156 256.226562 115.734375 C 256.875 115.183594 257.484375 114.585938 258.046875 113.949219 C 258.609375 113.308594 259.125 112.632812 259.589844 111.917969 C 260.054688 111.203125 260.46875 110.460938 260.824219 109.683594 C 261.183594 108.910156 261.484375 108.113281 261.726562 107.296875 C 261.96875 106.476562 262.152344 105.648438 262.277344 104.800781 C 262.398438 103.957031 262.460938 103.109375 262.460938 102.253906 L 262.460938 88.148438 C 262.460938 84.910156 261.59375 81.882812 260.078125 79.273438 C 258.613281 76.761719 255.429688 78.1875 255.429688 81.09375 L 255.429688 95.199219 C 255.429688 95.667969 255.339844 96.117188 255.164062 96.550781 C 254.984375 96.984375 254.730469 97.363281 254.402344 97.695312 C 254.070312 98.027344 253.691406 98.28125 253.261719 98.460938 C 252.832031 98.636719 252.382812 98.726562 251.917969 98.726562 C 251.449219 98.726562 251 98.636719 250.570312 98.460938 C 250.140625 98.28125 249.761719 98.027344 249.429688 97.695312 C 249.101562 97.363281 248.847656 96.984375 248.667969 96.550781 C 248.492188 96.117188 248.402344 95.667969 248.402344 95.199219 L 248.402344 81.09375 C 248.402344 80.625 248.3125 80.175781 248.132812 79.742188 C 247.957031 79.308594 247.703125 78.929688 247.371094 78.597656 C 247.042969 78.265625 246.664062 78.011719 246.230469 77.832031 C 245.800781 77.65625 245.351562 77.566406 244.886719 77.566406 C 244.421875 77.566406 243.972656 77.65625 243.542969 77.832031 C 243.113281 78.011719 242.730469 78.265625 242.402344 78.597656 C 242.074219 78.929688 241.820312 79.308594 241.640625 79.742188 C 241.460938 80.175781 241.375 80.625 241.375 81.09375 L 241.375 95.199219 C 241.375 95.667969 241.285156 96.117188 241.105469 96.550781 C 240.925781 96.984375 240.671875 97.363281 240.34375 97.695312 C 240.015625 98.027344 239.632812 98.28125 239.203125 98.460938 C 238.773438 98.636719 238.324219 98.726562 237.859375 98.726562 C 237.394531 98.726562 236.945312 98.636719 236.515625 98.460938 C 236.082031 98.28125 235.703125 98.027344 235.375 97.695312 C 235.042969 97.363281 234.789062 96.984375 234.613281 96.550781 C 234.433594 96.117188 234.34375 95.667969 234.34375 95.199219 L 234.34375 81.097656 C 234.34375 78.191406 231.152344 76.769531 229.699219 79.28125 C 228.179688 81.890625 227.316406 84.914062 227.316406 88.148438 L 227.316406 102.253906 C 227.316406 103.109375 227.375 103.957031 227.5 104.800781 C 227.621094 105.648438 227.804688 106.476562 228.046875 107.296875 C 228.289062 108.113281 228.589844 108.910156 228.949219 109.683594 C 229.308594 110.460938 229.71875 111.203125 230.183594 111.917969 C 230.648438 112.632812 231.164062 113.308594 231.726562 113.949219 C 232.292969 114.585938 232.898438 115.183594 233.546875 115.734375 C 234.199219 116.285156 234.882812 116.785156 235.605469 117.234375 C 236.328125 117.6875 237.078125 118.082031 237.859375 118.421875 L 237.859375 211.597656 C 237.859375 212.058594 237.902344 212.519531 237.992188 212.972656 C 238.082031 213.425781 238.21875 213.867188 238.394531 214.296875 C 238.570312 214.722656 238.785156 215.128906 239.042969 215.515625 C 239.300781 215.898438 239.589844 216.257812 239.917969 216.585938 C 240.242188 216.910156 240.597656 217.203125 240.984375 217.460938 C 241.367188 217.71875 241.769531 217.9375 242.199219 218.113281 C 242.625 218.289062 243.0625 218.425781 243.515625 218.515625 C 243.96875 218.605469 244.425781 218.652344 244.886719 218.652344 C 245.347656 218.652344 245.804688 218.605469 246.257812 218.515625 C 246.710938 218.425781 247.152344 218.289062 247.578125 218.113281 C 248.003906 217.9375 248.410156 217.71875 248.792969 217.460938 C 249.175781 217.203125 249.53125 216.910156 249.859375 216.585938 C 250.183594 216.257812 250.476562 215.898438 250.730469 215.515625 C 250.988281 215.128906 251.203125 214.722656 251.382812 214.296875 C 251.558594 213.867188 251.691406 213.425781 251.78125 212.972656 C 251.871094 212.519531 251.917969 212.058594 251.917969 211.597656 Z M 251.917969 118.421875 " fill-opacity="1" fill-rule="nonzero"/></g><g fill="#ffffff" fill-opacity="1"><g transform="translate(127.403732, 133.978861)"><g><path d="M 8.777344 -12.683594 C 7.308594 -12.683594 6.214844 -12.183594 5.339844 -11.402344 L 5.652344 -15.148438 L 13.371094 -15.148438 L 13.371094 -18.679688 L 2.5 -18.679688 L 1.6875 -9.746094 L 4.84375 -7.839844 C 5.558594 -8.621094 6.746094 -9.152344 7.777344 -9.152344 C 9.402344 -9.152344 10.621094 -7.902344 10.621094 -6.277344 C 10.621094 -4.625 9.308594 -3.40625 7.339844 -3.40625 C 5.652344 -3.40625 3.75 -3.84375 2.09375 -5.933594 L 1.375 -5.933594 L 1.09375 -2.1875 C 2.46875 -0.78125 5.183594 0.25 7.558594 0.25 C 11.683594 0.25 14.621094 -2.5625 14.621094 -6.433594 C 14.621094 -9.996094 12.246094 -12.683594 8.777344 -12.683594 Z M 8.777344 -12.683594 "/></g></g></g><g fill="#ffffff" fill-opacity="1"><g transform="translate(143.301305, 133.978861)"><g><path d="M 4.21875 0.25 C 5.464844 0.25 6.527344 -0.78125 6.527344 -2.03125 C 6.527344 -3.28125 5.464844 -4.3125 4.21875 -4.3125 C 3 -4.3125 1.96875 -3.28125 1.96875 -2.03125 C 1.96875 -0.78125 3 0.25 4.21875 0.25 Z M 4.21875 0.25 "/></g></g></g><g fill="#ffffff" fill-opacity="1"><g transform="translate(151.765438, 133.978861)"><g><path d="M 9.464844 -12.871094 C 9.277344 -12.902344 9.058594 -12.902344 8.871094 -12.902344 L 13.339844 -18.742188 L 8.777344 -18.742188 L 2.78125 -10.464844 C 1.96875 -9.246094 1.3125 -7.871094 1.3125 -6.339844 C 1.3125 -2.625 4.4375 0.25 8.308594 0.25 C 12.089844 0.21875 15.273438 -2.59375 15.304688 -6.339844 C 15.304688 -9.683594 12.683594 -12.433594 9.464844 -12.871094 Z M 8.308594 -3.1875 C 6.433594 -3.15625 5.214844 -4.5625 5.246094 -6.308594 C 5.246094 -8.121094 6.433594 -9.496094 8.308594 -9.527344 C 10.152344 -9.527344 11.402344 -8.121094 11.402344 -6.308594 C 11.433594 -4.5625 10.152344 -3.1875 8.308594 -3.1875 Z M 8.308594 -3.1875 "/></g></g></g><g fill="#ffffff" fill-opacity="1"><g transform="translate(168.340694, 133.978861)"><g/></g></g><g fill="#ffffff" fill-opacity="1"><g transform="translate(109.159585, 168.646197)"><g><path d="M 16.742188 -12.746094 C 14.960938 -12.746094 13.589844 -11.933594 12.808594 -10.558594 C 12.089844 -11.871094 10.839844 -12.746094 9.246094 -12.746094 C 7.808594 -12.746094 6.652344 -12.058594 5.839844 -10.964844 L 5.839844 -12.496094 L 1.84375 -12.496094 L 1.84375 0 L 5.839844 0 L 5.839844 -7.246094 C 5.839844 -8.152344 6.402344 -9.214844 7.621094 -9.214844 C 8.714844 -9.214844 9.433594 -8.339844 9.433594 -7.246094 L 9.433594 0 L 13.433594 0 L 13.433594 -7.246094 C 13.433594 -8.152344 13.996094 -9.214844 15.210938 -9.214844 C 16.304688 -9.214844 17.054688 -8.339844 17.054688 -7.246094 L 17.054688 0 L 21.023438 0 L 21.023438 -7.902344 C 21.023438 -10.808594 19.492188 -12.746094 16.742188 -12.746094 Z M 16.742188 -12.746094 "/></g></g></g><g fill="#ffffff" fill-opacity="1"><g transform="translate(131.772242, 168.646197)"><g><path d="M 3.90625 -14.589844 C 5.089844 -14.589844 6.089844 -15.585938 6.089844 -16.773438 C 6.089844 -17.992188 5.089844 -18.960938 3.90625 -18.960938 C 2.71875 -18.960938 1.71875 -17.992188 1.71875 -16.773438 C 1.71875 -15.585938 2.71875 -14.589844 3.90625 -14.589844 Z M 1.90625 0 L 5.871094 0 L 5.871094 -12.496094 L 1.90625 -12.496094 Z M 1.90625 0 "/></g></g></g><g fill="#ffffff" fill-opacity="1"><g transform="translate(139.580483, 168.646197)"><g><path d="M 1.84375 0 L 5.839844 0 L 5.839844 -21.398438 L 1.84375 -21.398438 Z M 1.84375 0 "/></g></g></g><g fill="#ffffff" fill-opacity="1"><g transform="translate(147.263794, 168.646197)"><g><path d="M 1.84375 0 L 5.839844 0 L 5.839844 -21.398438 L 1.84375 -21.398438 Z M 1.84375 0 "/></g></g></g><g fill="#ffffff" fill-opacity="1"><g transform="translate(154.947105, 168.646197)"><g><path d="M 3.90625 -14.589844 C 5.089844 -14.589844 6.089844 -15.585938 6.089844 -16.773438 C 6.089844 -17.992188 5.089844 -18.960938 3.90625 -18.960938 C 2.71875 -18.960938 1.71875 -17.992188 1.71875 -16.773438 C 1.71875 -15.585938 2.71875 -14.589844 3.90625 -14.589844 Z M 1.90625 0 L 5.871094 0 L 5.871094 -12.496094 L 1.90625 -12.496094 Z M 1.90625 0 "/></g></g></g><g fill="#ffffff" fill-opacity="1"><g transform="translate(162.755346, 168.646197)"><g><path d="M 7.933594 0.25 C 12.121094 0.25 14.867188 -2.5 14.867188 -6.246094 C 14.867188 -9.996094 12.121094 -12.746094 7.933594 -12.746094 C 3.75 -12.746094 0.96875 -9.996094 0.96875 -6.246094 C 0.96875 -2.5 3.75 0.25 7.933594 0.25 Z M 7.933594 -3.28125 C 6.214844 -3.3125 4.964844 -4.5625 4.964844 -6.246094 C 4.964844 -7.933594 6.214844 -9.183594 7.933594 -9.214844 C 9.621094 -9.183594 10.902344 -7.933594 10.902344 -6.246094 C 10.902344 -4.5625 9.621094 -3.3125 7.933594 -3.28125 Z M 7.933594 -3.28125 "/></g></g></g><g fill="#ffffff" fill-opacity="1"><g transform="translate(178.621687, 168.646197)"><g><path d="M 9.402344 -12.746094 C 7.964844 -12.746094 6.714844 -12.058594 5.839844 -10.964844 L 5.839844 -12.496094 L 1.84375 -12.496094 L 1.84375 0 L 5.839844 0 L 5.839844 -7.246094 C 5.839844 -8.371094 6.777344 -9.214844 7.933594 -9.214844 C 9.089844 -9.214844 9.902344 -8.371094 9.902344 -7.246094 L 9.902344 0 L 13.871094 0 L 13.871094 -7.902344 C 13.871094 -10.652344 11.871094 -12.746094 9.402344 -12.746094 Z M 9.402344 -12.746094 "/></g></g></g></svg>