<svg xmlns="http://www.w3.org/2000/svg" xmlns:xlink="http://www.w3.org/1999/xlink" width="400" zoomAndPan="magnify" viewBox="0 0 300 299.999988" height="400" preserveAspectRatio="xMidYMid meet" version="1.0"><defs><clipPath id="id1"><path d="M 36.445312 93.914062 L 68 93.914062 L 68 150 L 36.445312 150 Z M 36.445312 93.914062 " clip-rule="nonzero"/></clipPath><clipPath id="id2"><path d="M 36.445312 93.914062 L 263.554688 93.914062 L 263.554688 206.226562 L 36.445312 206.226562 Z M 36.445312 93.914062 " clip-rule="nonzero"/></clipPath></defs><g clip-path="url(#id1)"><path fill="#135e6f" d="M 52 93.914062 C 49.136719 93.914062 46.816406 96.238281 46.816406 99.105469 L 46.816406 100.835938 C 46.816406 103.703125 49.136719 106.027344 52 106.027344 C 54.867188 106.027344 57.1875 103.703125 57.1875 100.835938 L 57.1875 99.105469 C 57.1875 96.238281 54.867188 93.914062 52 93.914062 M 46.632812 117.703125 C 46.660156 117.503906 46.382812 117.429688 46.304688 117.613281 L 42.53125 126.425781 C 41.984375 127.699219 40.734375 128.523438 39.351562 128.523438 L 37.757812 128.523438 C 37.464844 128.523438 37.195312 128.378906 37.035156 128.136719 C 36.875 127.890625 36.847656 127.585938 36.960938 127.316406 L 41.632812 116.410156 L 43.351562 112.109375 C 44.398438 109.480469 46.941406 107.757812 49.769531 107.757812 L 54.234375 107.757812 C 57.0625 107.757812 59.605469 109.480469 60.652344 112.109375 L 62.371094 116.410156 L 67.039062 127.316406 C 67.15625 127.585938 67.128906 127.890625 66.96875 128.136719 C 66.808594 128.378906 66.535156 128.523438 66.246094 128.523438 L 64.652344 128.523438 C 63.269531 128.523438 62.019531 127.699219 61.476562 126.425781 L 57.703125 117.613281 C 57.621094 117.429688 57.34375 117.503906 57.371094 117.703125 L 58.914062 128.523438 L 60.566406 148.355469 C 60.585938 148.59375 60.503906 148.832031 60.339844 149.011719 C 60.175781 149.1875 59.945312 149.289062 59.707031 149.289062 L 58.386719 149.289062 C 56.695312 149.289062 55.253906 148.066406 54.976562 146.398438 L 52.175781 129.546875 C 52.140625 129.355469 51.867188 129.355469 51.832031 129.546875 L 49.027344 146.398438 C 48.75 148.066406 47.308594 149.292969 45.617188 149.289062 L 44.296875 149.289062 C 44.058594 149.289062 43.828125 149.1875 43.664062 149.011719 C 43.5 148.832031 43.417969 148.59375 43.4375 148.355469 L 45.089844 128.523438 L 46.632812 117.703125 " fill-opacity="1" fill-rule="nonzero"/></g><g clip-path="url(#id2)"><path fill="#b6cd34" d="M 84.667969 93.914062 C 81.804688 93.914062 79.484375 96.238281 79.484375 99.105469 L 79.484375 100.835938 C 79.484375 103.703125 81.804688 106.027344 84.667969 106.027344 C 87.53125 106.027344 89.851562 103.703125 89.851562 100.835938 L 89.851562 99.105469 C 89.851562 96.238281 87.53125 93.914062 84.667969 93.914062 M 79.296875 117.703125 C 79.328125 117.503906 79.046875 117.429688 78.96875 117.613281 L 75.195312 126.425781 C 74.652344 127.699219 73.398438 128.523438 72.015625 128.523438 L 70.421875 128.523438 C 70.132812 128.523438 69.859375 128.378906 69.699219 128.136719 C 69.539062 127.890625 69.511719 127.585938 69.628906 127.316406 L 74.296875 116.410156 L 76.015625 112.109375 C 77.066406 109.480469 79.609375 107.757812 82.433594 107.757812 L 86.902344 107.757812 C 89.726562 107.757812 92.269531 109.480469 93.320312 112.109375 L 95.039062 116.410156 L 99.707031 127.316406 C 99.820312 127.585938 99.792969 127.890625 99.632812 128.136719 C 99.472656 128.378906 99.203125 128.523438 98.910156 128.523438 L 97.316406 128.523438 C 95.933594 128.523438 94.6875 127.699219 94.140625 126.425781 L 90.367188 117.613281 C 90.289062 117.429688 90.011719 117.503906 90.039062 117.703125 L 91.582031 128.523438 L 93.230469 148.355469 C 93.25 148.59375 93.171875 148.832031 93.007812 149.011719 C 92.84375 149.1875 92.613281 149.289062 92.371094 149.289062 L 91.050781 149.289062 C 89.363281 149.289062 87.921875 148.066406 87.640625 146.398438 L 84.839844 129.546875 C 84.808594 129.355469 84.53125 129.355469 84.5 129.546875 L 81.695312 146.398438 C 81.417969 148.066406 79.972656 149.292969 78.285156 149.289062 L 76.964844 149.289062 C 76.722656 149.289062 76.492188 149.1875 76.328125 149.011719 C 76.164062 148.832031 76.085938 148.59375 76.105469 148.355469 L 77.753906 128.523438 L 79.296875 117.703125 M 117.332031 93.914062 C 114.46875 93.914062 112.148438 96.238281 112.148438 99.105469 L 112.148438 100.835938 C 112.148438 103.703125 114.46875 106.027344 117.332031 106.027344 C 120.199219 106.027344 122.519531 103.703125 122.519531 100.835938 L 122.519531 99.105469 C 122.519531 96.238281 120.199219 93.914062 117.332031 93.914062 M 111.964844 117.703125 C 111.992188 117.503906 111.714844 117.429688 111.636719 117.613281 L 107.863281 126.425781 C 107.316406 127.699219 106.066406 128.523438 104.683594 128.523438 L 103.089844 128.523438 C 102.796875 128.523438 102.527344 128.378906 102.367188 128.136719 C 102.207031 127.890625 102.179688 127.585938 102.292969 127.316406 L 106.964844 116.410156 L 108.683594 112.109375 C 109.730469 109.480469 112.273438 107.757812 115.101562 107.757812 L 119.566406 107.757812 C 122.394531 107.757812 124.9375 109.480469 125.984375 112.109375 L 127.703125 116.410156 L 132.371094 127.316406 C 132.488281 127.585938 132.460938 127.890625 132.300781 128.136719 C 132.140625 128.378906 131.867188 128.523438 131.578125 128.523438 L 129.984375 128.523438 C 128.601562 128.523438 127.351562 127.699219 126.808594 126.425781 L 123.035156 117.613281 C 122.953125 117.429688 122.675781 117.503906 122.703125 117.703125 L 124.246094 128.523438 L 125.898438 148.355469 C 125.917969 148.59375 125.835938 148.832031 125.671875 149.011719 C 125.507812 149.1875 125.277344 149.289062 125.039062 149.289062 L 123.71875 149.289062 C 122.027344 149.289062 120.585938 148.066406 120.308594 146.398438 L 117.507812 129.546875 C 117.472656 129.355469 117.199219 129.355469 117.164062 129.546875 L 114.359375 146.398438 C 114.082031 148.066406 112.640625 149.292969 110.949219 149.289062 L 109.628906 149.289062 C 109.390625 149.289062 109.160156 149.1875 108.996094 149.011719 C 108.832031 148.832031 108.75 148.59375 108.769531 148.355469 L 110.421875 128.523438 L 111.964844 117.703125 M 150 93.914062 C 147.136719 93.914062 144.816406 96.238281 144.816406 99.105469 L 144.816406 100.835938 C 144.816406 103.703125 147.136719 106.027344 150 106.027344 C 152.863281 106.027344 155.183594 103.703125 155.183594 100.835938 L 155.183594 99.105469 C 155.183594 96.238281 152.863281 93.914062 150 93.914062 M 144.628906 117.703125 C 144.660156 117.503906 144.378906 117.429688 144.300781 117.613281 L 140.527344 126.425781 C 139.984375 127.699219 138.730469 128.523438 137.347656 128.523438 L 135.753906 128.523438 C 135.464844 128.523438 135.191406 128.378906 135.03125 128.136719 C 134.871094 127.890625 134.84375 127.585938 134.960938 127.316406 L 139.628906 116.410156 L 141.347656 112.109375 C 142.398438 109.480469 144.941406 107.757812 147.765625 107.757812 L 152.234375 107.757812 C 155.058594 107.757812 157.601562 109.480469 158.652344 112.109375 L 160.371094 116.410156 L 165.039062 127.316406 C 165.152344 127.585938 165.125 127.890625 164.964844 128.136719 C 164.804688 128.378906 164.535156 128.523438 164.242188 128.523438 L 162.648438 128.523438 C 161.265625 128.523438 160.019531 127.699219 159.472656 126.425781 L 155.699219 117.613281 C 155.621094 117.429688 155.34375 117.503906 155.371094 117.703125 L 156.914062 128.523438 L 158.5625 148.355469 C 158.582031 148.59375 158.503906 148.832031 158.339844 149.011719 C 158.175781 149.1875 157.945312 149.289062 157.703125 149.289062 L 156.382812 149.289062 C 154.695312 149.289062 153.253906 148.066406 152.972656 146.398438 L 150.171875 129.546875 C 150.140625 129.355469 149.863281 129.355469 149.832031 129.546875 L 147.027344 146.398438 C 146.75 148.066406 145.304688 149.292969 143.617188 149.289062 L 142.296875 149.289062 C 142.054688 149.289062 141.824219 149.1875 141.660156 149.011719 C 141.496094 148.832031 141.417969 148.59375 141.4375 148.355469 L 143.085938 128.523438 L 144.628906 117.703125 M 182.664062 93.914062 C 179.800781 93.914062 177.480469 96.238281 177.480469 99.105469 L 177.480469 100.835938 C 177.480469 103.703125 179.800781 106.027344 182.664062 106.027344 C 185.53125 106.027344 187.851562 103.703125 187.851562 100.835938 L 187.851562 99.105469 C 187.851562 96.238281 185.53125 93.914062 182.664062 93.914062 M 177.296875 117.703125 C 177.324219 117.503906 177.046875 117.429688 176.96875 117.613281 L 173.195312 126.425781 C 172.648438 127.699219 171.398438 128.523438 170.015625 128.523438 L 168.421875 128.523438 C 168.128906 128.523438 167.859375 128.378906 167.699219 128.136719 C 167.539062 127.890625 167.511719 127.585938 167.625 127.316406 L 172.296875 116.410156 L 174.015625 112.109375 C 175.0625 109.480469 177.605469 107.757812 180.433594 107.757812 L 184.898438 107.757812 C 187.726562 107.757812 190.269531 109.480469 191.316406 112.109375 L 193.035156 116.410156 L 197.703125 127.316406 C 197.820312 127.585938 197.792969 127.890625 197.632812 128.136719 C 197.472656 128.378906 197.199219 128.523438 196.910156 128.523438 L 195.316406 128.523438 C 193.933594 128.523438 192.683594 127.699219 192.140625 126.425781 L 188.367188 117.613281 C 188.285156 117.429688 188.007812 117.503906 188.035156 117.703125 L 189.578125 128.523438 L 191.230469 148.355469 C 191.25 148.59375 191.167969 148.832031 191.003906 149.011719 C 190.839844 149.1875 190.609375 149.289062 190.371094 149.289062 L 189.050781 149.289062 C 187.359375 149.289062 185.917969 148.066406 185.640625 146.398438 L 182.839844 129.546875 C 182.804688 129.355469 182.53125 129.355469 182.496094 129.546875 L 179.691406 146.398438 C 179.414062 148.066406 177.972656 149.292969 176.28125 149.289062 L 174.960938 149.289062 C 174.722656 149.289062 174.492188 149.1875 174.328125 149.011719 C 174.164062 148.832031 174.082031 148.59375 174.101562 148.355469 L 175.753906 128.523438 L 177.296875 117.703125 M 215.332031 93.914062 C 212.46875 93.914062 210.148438 96.238281 210.148438 99.105469 L 210.148438 100.835938 C 210.148438 103.703125 212.46875 106.027344 215.332031 106.027344 C 218.195312 106.027344 220.515625 103.703125 220.515625 100.835938 L 220.515625 99.105469 C 220.515625 96.238281 218.195312 93.914062 215.332031 93.914062 M 209.960938 117.703125 C 209.992188 117.503906 209.710938 117.429688 209.632812 117.613281 L 205.859375 126.425781 C 205.316406 127.699219 204.0625 128.523438 202.679688 128.523438 L 201.085938 128.523438 C 200.796875 128.523438 200.523438 128.378906 200.363281 128.136719 C 200.203125 127.890625 200.175781 127.585938 200.292969 127.316406 L 204.960938 116.410156 L 206.679688 112.109375 C 207.730469 109.480469 210.273438 107.757812 213.097656 107.757812 L 217.566406 107.757812 C 220.390625 107.757812 222.933594 109.480469 223.984375 112.109375 L 225.703125 116.410156 L 230.371094 127.316406 C 230.484375 127.585938 230.457031 127.890625 230.296875 128.136719 C 230.136719 128.378906 229.867188 128.523438 229.574219 128.523438 L 227.980469 128.523438 C 226.597656 128.523438 225.351562 127.699219 224.804688 126.425781 L 221.03125 117.613281 C 220.953125 117.429688 220.675781 117.503906 220.703125 117.703125 L 222.246094 128.523438 L 223.894531 148.355469 C 223.914062 148.59375 223.835938 148.832031 223.671875 149.011719 C 223.507812 149.1875 223.277344 149.289062 223.035156 149.289062 L 221.714844 149.289062 C 220.027344 149.289062 218.585938 148.066406 218.304688 146.398438 L 215.503906 129.546875 C 215.472656 129.355469 215.195312 129.355469 215.164062 129.546875 L 212.359375 146.398438 C 212.082031 148.066406 210.636719 149.292969 208.949219 149.289062 L 207.628906 149.289062 C 207.386719 149.289062 207.15625 149.1875 206.992188 149.011719 C 206.828125 148.832031 206.75 148.59375 206.769531 148.355469 L 208.417969 128.523438 L 209.960938 117.703125 M 248 93.914062 C 245.132812 93.914062 242.8125 96.238281 242.8125 99.105469 L 242.8125 100.835938 C 242.8125 103.703125 245.132812 106.027344 248 106.027344 C 250.863281 106.027344 253.183594 103.703125 253.183594 100.835938 L 253.183594 99.105469 C 253.183594 96.238281 250.863281 93.914062 248 93.914062 M 242.628906 117.703125 C 242.65625 117.503906 242.378906 117.429688 242.300781 117.613281 L 238.527344 126.425781 C 237.980469 127.699219 236.730469 128.523438 235.347656 128.523438 L 233.753906 128.523438 C 233.460938 128.523438 233.191406 128.378906 233.03125 128.136719 C 232.871094 127.890625 232.84375 127.585938 232.957031 127.316406 L 237.628906 116.410156 L 239.347656 112.109375 C 240.394531 109.480469 242.9375 107.757812 245.765625 107.757812 L 250.230469 107.757812 C 253.058594 107.757812 255.601562 109.480469 256.648438 112.109375 L 258.367188 116.410156 L 263.035156 127.316406 C 263.152344 127.585938 263.125 127.890625 262.964844 128.136719 C 262.804688 128.378906 262.53125 128.523438 262.242188 128.523438 L 260.648438 128.523438 C 259.265625 128.523438 258.015625 127.699219 257.472656 126.425781 L 253.699219 117.613281 C 253.617188 117.429688 253.339844 117.503906 253.367188 117.703125 L 254.910156 128.523438 L 256.5625 148.355469 C 256.582031 148.59375 256.5 148.832031 256.335938 149.011719 C 256.171875 149.1875 255.941406 149.289062 255.703125 149.289062 L 254.382812 149.289062 C 252.691406 149.289062 251.25 148.066406 250.972656 146.398438 L 248.171875 129.546875 C 248.136719 129.355469 247.863281 129.355469 247.828125 129.546875 L 245.023438 146.398438 C 244.746094 148.066406 243.304688 149.292969 241.613281 149.289062 L 240.292969 149.289062 C 240.054688 149.289062 239.824219 149.1875 239.660156 149.011719 C 239.496094 148.832031 239.414062 148.59375 239.433594 148.355469 L 241.085938 128.523438 L 242.628906 117.703125 M 52 150.847656 C 49.136719 150.847656 46.816406 153.171875 46.816406 156.039062 L 46.816406 157.769531 C 46.816406 160.636719 49.136719 162.960938 52 162.960938 C 54.867188 162.960938 57.1875 160.636719 57.1875 157.769531 L 57.1875 156.039062 C 57.1875 153.171875 54.867188 150.847656 52 150.847656 M 46.632812 174.640625 C 46.660156 174.441406 46.382812 174.363281 46.304688 174.546875 L 42.53125 183.359375 C 41.984375 184.632812 40.734375 185.460938 39.351562 185.457031 L 37.757812 185.457031 C 37.464844 185.457031 37.195312 185.3125 37.035156 185.070312 C 36.875 184.828125 36.847656 184.519531 36.960938 184.253906 L 41.632812 173.34375 L 43.351562 169.042969 C 44.398438 166.414062 46.941406 164.691406 49.769531 164.691406 L 54.234375 164.691406 C 57.0625 164.691406 59.605469 166.414062 60.652344 169.042969 L 62.371094 173.34375 L 67.039062 184.253906 C 67.15625 184.519531 67.128906 184.828125 66.96875 185.070312 C 66.808594 185.3125 66.535156 185.457031 66.246094 185.457031 L 64.652344 185.457031 C 63.269531 185.457031 62.019531 184.632812 61.476562 183.359375 L 57.703125 174.546875 C 57.621094 174.363281 57.34375 174.441406 57.371094 174.640625 L 58.914062 185.457031 L 60.566406 205.289062 C 60.585938 205.53125 60.503906 205.769531 60.339844 205.945312 C 60.175781 206.125 59.945312 206.226562 59.707031 206.226562 L 58.386719 206.226562 C 56.695312 206.226562 55.253906 205.003906 54.976562 203.332031 L 52.175781 186.484375 C 52.140625 186.289062 51.867188 186.289062 51.832031 186.484375 L 49.027344 203.332031 C 48.75 205.003906 47.308594 206.226562 45.617188 206.226562 L 44.296875 206.226562 C 44.058594 206.226562 43.828125 206.125 43.664062 205.945312 C 43.5 205.769531 43.417969 205.53125 43.4375 205.289062 L 45.089844 185.457031 L 46.632812 174.640625 M 84.667969 150.847656 C 81.804688 150.847656 79.484375 153.171875 79.484375 156.039062 L 79.484375 157.769531 C 79.484375 160.636719 81.804688 162.960938 84.667969 162.960938 C 87.53125 162.960938 89.851562 160.636719 89.851562 157.769531 L 89.851562 156.039062 C 89.851562 153.171875 87.53125 150.847656 84.667969 150.847656 M 79.296875 174.640625 C 79.328125 174.441406 79.046875 174.363281 78.96875 174.546875 L 75.195312 183.359375 C 74.652344 184.632812 73.398438 185.460938 72.015625 185.457031 L 70.421875 185.457031 C 70.132812 185.457031 69.859375 185.3125 69.699219 185.070312 C 69.539062 184.828125 69.511719 184.519531 69.628906 184.253906 L 74.296875 173.34375 L 76.015625 169.042969 C 77.066406 166.414062 79.609375 164.691406 82.433594 164.691406 L 86.902344 164.691406 C 89.726562 164.691406 92.269531 166.414062 93.320312 169.042969 L 95.039062 173.34375 L 99.707031 184.253906 C 99.820312 184.519531 99.792969 184.828125 99.632812 185.070312 C 99.472656 185.3125 99.203125 185.457031 98.910156 185.457031 L 97.316406 185.457031 C 95.933594 185.457031 94.6875 184.632812 94.140625 183.359375 L 90.367188 174.546875 C 90.289062 174.363281 90.011719 174.441406 90.039062 174.640625 L 91.582031 185.457031 L 93.230469 205.289062 C 93.25 205.53125 93.171875 205.769531 93.007812 205.945312 C 92.84375 206.125 92.613281 206.226562 92.371094 206.226562 L 91.050781 206.226562 C 89.363281 206.226562 87.921875 205.003906 87.640625 203.332031 L 84.839844 186.484375 C 84.808594 186.289062 84.53125 186.289062 84.5 186.484375 L 81.695312 203.332031 C 81.417969 205.003906 79.972656 206.226562 78.285156 206.226562 L 76.964844 206.226562 C 76.722656 206.226562 76.492188 206.125 76.328125 205.945312 C 76.164062 205.769531 76.085938 205.53125 76.105469 205.289062 L 77.753906 185.457031 L 79.296875 174.640625 M 117.332031 150.847656 C 114.46875 150.847656 112.148438 153.171875 112.148438 156.039062 L 112.148438 157.769531 C 112.148438 160.636719 114.46875 162.960938 117.332031 162.960938 C 120.199219 162.960938 122.519531 160.636719 122.519531 157.769531 L 122.519531 156.039062 C 122.519531 153.171875 120.199219 150.847656 117.332031 150.847656 M 111.964844 174.640625 C 111.992188 174.441406 111.714844 174.363281 111.636719 174.546875 L 107.863281 183.359375 C 107.316406 184.632812 106.066406 185.460938 104.683594 185.457031 L 103.089844 185.457031 C 102.796875 185.457031 102.527344 185.3125 102.367188 185.070312 C 102.207031 184.828125 102.179688 184.519531 102.292969 184.253906 L 106.964844 173.34375 L 108.683594 169.042969 C 109.730469 166.414062 112.273438 164.691406 115.101562 164.691406 L 119.566406 164.691406 C 122.394531 164.691406 124.9375 166.414062 125.984375 169.042969 L 127.703125 173.34375 L 132.371094 184.253906 C 132.488281 184.519531 132.460938 184.828125 132.300781 185.070312 C 132.140625 185.3125 131.867188 185.457031 131.578125 185.457031 L 129.984375 185.457031 C 128.601562 185.457031 127.351562 184.632812 126.808594 183.359375 L 123.035156 174.546875 C 122.953125 174.363281 122.675781 174.441406 122.703125 174.640625 L 124.246094 185.457031 L 125.898438 205.289062 C 125.917969 205.53125 125.835938 205.769531 125.671875 205.945312 C 125.507812 206.125 125.277344 206.226562 125.039062 206.226562 L 123.71875 206.226562 C 122.027344 206.226562 120.585938 205.003906 120.308594 203.332031 L 117.507812 186.484375 C 117.472656 186.289062 117.199219 186.289062 117.164062 186.484375 L 114.359375 203.332031 C 114.082031 205.003906 112.640625 206.226562 110.949219 206.226562 L 109.628906 206.226562 C 109.390625 206.226562 109.160156 206.125 108.996094 205.945312 C 108.832031 205.769531 108.75 205.53125 108.769531 205.289062 L 110.421875 185.457031 L 111.964844 174.640625 M 150 150.847656 C 147.136719 150.847656 144.816406 153.171875 144.816406 156.039062 L 144.816406 157.769531 C 144.816406 160.636719 147.136719 162.960938 150 162.960938 C 152.863281 162.960938 155.183594 160.636719 155.183594 157.769531 L 155.183594 156.039062 C 155.183594 153.171875 152.863281 150.847656 150 150.847656 M 144.628906 174.640625 C 144.660156 174.441406 144.378906 174.363281 144.300781 174.546875 L 140.527344 183.359375 C 139.984375 184.632812 138.730469 185.460938 137.347656 185.457031 L 135.753906 185.457031 C 135.464844 185.457031 135.191406 185.3125 135.03125 185.070312 C 134.871094 184.828125 134.84375 184.519531 134.960938 184.253906 L 139.628906 173.34375 L 141.347656 169.042969 C 142.398438 166.414062 144.941406 164.691406 147.765625 164.691406 L 152.234375 164.691406 C 155.058594 164.691406 157.601562 166.414062 158.652344 169.042969 L 160.371094 173.34375 L 165.039062 184.253906 C 165.152344 184.519531 165.125 184.828125 164.964844 185.070312 C 164.804688 185.3125 164.535156 185.457031 164.242188 185.457031 L 162.648438 185.457031 C 161.265625 185.457031 160.019531 184.632812 159.472656 183.359375 L 155.699219 174.546875 C 155.621094 174.363281 155.34375 174.441406 155.371094 174.640625 L 156.914062 185.457031 L 158.5625 205.289062 C 158.582031 205.53125 158.503906 205.769531 158.339844 205.945312 C 158.175781 206.125 157.945312 206.226562 157.703125 206.226562 L 156.382812 206.226562 C 154.695312 206.226562 153.253906 205.003906 152.972656 203.332031 L 150.171875 186.484375 C 150.140625 186.289062 149.863281 186.289062 149.832031 186.484375 L 147.027344 203.332031 C 146.75 205.003906 145.304688 206.226562 143.617188 206.226562 L 142.296875 206.226562 C 142.054688 206.226562 141.824219 206.125 141.660156 205.945312 C 141.496094 205.769531 141.417969 205.53125 141.4375 205.289062 L 143.085938 185.457031 L 144.628906 174.640625 M 182.664062 150.847656 C 179.800781 150.847656 177.480469 153.171875 177.480469 156.039062 L 177.480469 157.769531 C 177.480469 160.636719 179.800781 162.960938 182.664062 162.960938 C 185.53125 162.960938 187.851562 160.636719 187.851562 157.769531 L 187.851562 156.039062 C 187.851562 153.171875 185.53125 150.847656 182.664062 150.847656 M 177.296875 174.640625 C 177.324219 174.441406 177.046875 174.363281 176.96875 174.546875 L 173.195312 183.359375 C 172.648438 184.632812 171.398438 185.460938 170.015625 185.457031 L 168.421875 185.457031 C 168.128906 185.457031 167.859375 185.3125 167.699219 185.070312 C 167.539062 184.828125 167.511719 184.519531 167.625 184.253906 L 172.296875 173.34375 L 174.015625 169.042969 C 175.0625 166.414062 177.605469 164.691406 180.433594 164.691406 L 184.898438 164.691406 C 187.726562 164.691406 190.269531 166.414062 191.316406 169.042969 L 193.035156 173.34375 L 197.703125 184.253906 C 197.820312 184.519531 197.792969 184.828125 197.632812 185.070312 C 197.472656 185.3125 197.199219 185.457031 196.910156 185.457031 L 195.316406 185.457031 C 193.933594 185.457031 192.683594 184.632812 192.140625 183.359375 L 188.367188 174.546875 C 188.285156 174.363281 188.007812 174.441406 188.035156 174.640625 L 189.578125 185.457031 L 191.230469 205.289062 C 191.25 205.53125 191.167969 205.769531 191.003906 205.945312 C 190.839844 206.125 190.609375 206.226562 190.371094 206.226562 L 189.050781 206.226562 C 187.359375 206.226562 185.917969 205.003906 185.640625 203.332031 L 182.839844 186.484375 C 182.804688 186.289062 182.53125 186.289062 182.496094 186.484375 L 179.691406 203.332031 C 179.414062 205.003906 177.972656 206.226562 176.28125 206.226562 L 174.960938 206.226562 C 174.722656 206.226562 174.492188 206.125 174.328125 205.945312 C 174.164062 205.769531 174.082031 205.53125 174.101562 205.289062 L 175.753906 185.457031 L 177.296875 174.640625 M 215.332031 150.847656 C 212.46875 150.847656 210.148438 153.171875 210.148438 156.039062 L 210.148438 157.769531 C 210.148438 160.636719 212.46875 162.960938 215.332031 162.960938 C 218.195312 162.960938 220.515625 160.636719 220.515625 157.769531 L 220.515625 156.039062 C 220.515625 153.171875 218.195312 150.847656 215.332031 150.847656 M 209.960938 174.640625 C 209.992188 174.441406 209.710938 174.363281 209.632812 174.546875 L 205.859375 183.359375 C 205.316406 184.632812 204.0625 185.460938 202.679688 185.457031 L 201.085938 185.457031 C 200.796875 185.457031 200.523438 185.3125 200.363281 185.070312 C 200.203125 184.828125 200.175781 184.519531 200.292969 184.253906 L 204.960938 173.34375 L 206.679688 169.042969 C 207.730469 166.414062 210.273438 164.691406 213.097656 164.691406 L 217.566406 164.691406 C 220.390625 164.691406 222.933594 166.414062 223.984375 169.042969 L 225.703125 173.34375 L 230.371094 184.253906 C 230.484375 184.519531 230.457031 184.828125 230.296875 185.070312 C 230.136719 185.3125 229.867188 185.457031 229.574219 185.457031 L 227.980469 185.457031 C 226.597656 185.457031 225.351562 184.632812 224.804688 183.359375 L 221.03125 174.546875 C 220.953125 174.363281 220.675781 174.441406 220.703125 174.640625 L 222.246094 185.457031 L 223.894531 205.289062 C 223.914062 205.53125 223.835938 205.769531 223.671875 205.945312 C 223.507812 206.125 223.277344 206.226562 223.035156 206.226562 L 221.714844 206.226562 C 220.027344 206.226562 218.585938 205.003906 218.304688 203.332031 L 215.503906 186.484375 C 215.472656 186.289062 215.195312 186.289062 215.164062 186.484375 L 212.359375 203.332031 C 212.082031 205.003906 210.636719 206.226562 208.949219 206.226562 L 207.628906 206.226562 C 207.386719 206.226562 207.15625 206.125 206.992188 205.945312 C 206.828125 205.769531 206.75 205.53125 206.769531 205.289062 L 208.417969 185.457031 L 209.960938 174.640625 " fill-opacity="1" fill-rule="nonzero"/></g></svg>