<svg xmlns="http://www.w3.org/2000/svg" xmlns:xlink="http://www.w3.org/1999/xlink" width="400" zoomAndPan="magnify" viewBox="0 0 300 299.999988" height="400" preserveAspectRatio="xMidYMid meet" version="1.0"><defs><clipPath id="id1"><path d="M 60 61 L 243.734375 61 L 243.734375 237 L 60 237 Z M 60 61 " clip-rule="nonzero"/></clipPath></defs><g clip-path="url(#id1)"><path fill="#135e6f" d="M 230.808594 159 L 151.84375 78.265625 L 72.867188 159 C 72.519531 159.34375 72.144531 159.652344 71.738281 159.921875 C 71.332031 160.195312 70.90625 160.421875 70.453125 160.609375 C 70.003906 160.796875 69.539062 160.941406 69.058594 161.035156 C 68.582031 161.132812 68.097656 161.183594 67.609375 161.183594 C 67.121094 161.1875 66.636719 161.140625 66.15625 161.050781 C 65.679688 160.957031 65.210938 160.820312 64.761719 160.636719 C 64.308594 160.453125 63.878906 160.230469 63.46875 159.960938 C 63.058594 159.695312 62.679688 159.390625 62.332031 159.046875 C 61.984375 158.707031 61.671875 158.335938 61.394531 157.933594 C 61.117188 157.53125 60.882812 157.105469 60.6875 156.65625 C 60.496094 156.207031 60.347656 155.746094 60.246094 155.269531 C 60.140625 154.792969 60.085938 154.308594 60.078125 153.820312 C 60.066406 153.332031 60.105469 152.847656 60.191406 152.367188 C 60.277344 151.886719 60.410156 151.417969 60.585938 150.964844 C 60.765625 150.507812 60.984375 150.074219 61.246094 149.664062 C 61.507812 149.25 61.808594 148.867188 62.144531 148.515625 L 143.796875 65.039062 C 144.320312 64.503906 144.894531 64.023438 145.511719 63.601562 C 146.132812 63.179688 146.789062 62.824219 147.476562 62.535156 C 148.167969 62.242188 148.882812 62.023438 149.617188 61.875 C 150.351562 61.726562 151.089844 61.652344 151.839844 61.652344 C 152.589844 61.652344 153.332031 61.726562 154.066406 61.875 C 154.800781 62.023438 155.511719 62.242188 156.203125 62.535156 C 156.894531 62.824219 157.550781 63.179688 158.167969 63.601562 C 158.789062 64.023438 159.359375 64.503906 159.882812 65.039062 L 241.53125 148.5 C 241.882812 148.851562 242.195312 149.230469 242.472656 149.644531 C 242.75 150.058594 242.980469 150.492188 243.171875 150.953125 C 243.359375 151.410156 243.503906 151.886719 243.597656 152.371094 C 243.691406 152.859375 243.738281 153.351562 243.738281 153.847656 C 243.734375 154.34375 243.683594 154.835938 243.582031 155.324219 C 243.484375 155.808594 243.335938 156.28125 243.144531 156.738281 C 242.949219 157.195312 242.710938 157.628906 242.433594 158.039062 C 242.152344 158.449219 241.835938 158.828125 241.480469 159.175781 C 241.125 159.523438 240.738281 159.832031 240.324219 160.101562 C 239.90625 160.371094 239.46875 160.597656 239.007812 160.78125 C 238.546875 160.964844 238.070312 161.101562 237.582031 161.191406 C 237.09375 161.277344 236.601562 161.320312 236.105469 161.308594 C 235.609375 161.300781 235.117188 161.242188 234.632812 161.136719 C 234.148438 161.03125 233.675781 160.878906 233.222656 160.679688 C 232.769531 160.480469 232.335938 160.234375 231.929688 159.949219 C 231.523438 159.664062 231.148438 159.34375 230.808594 158.984375 Z M 219.335938 161.25 L 219.335938 221.238281 C 219.335938 222.222656 219.238281 223.199219 219.046875 224.164062 C 218.855469 225.132812 218.570312 226.070312 218.191406 226.980469 C 217.816406 227.886719 217.355469 228.753906 216.808594 229.570312 C 216.261719 230.390625 215.636719 231.148438 214.941406 231.84375 C 214.246094 232.539062 213.488281 233.164062 212.667969 233.710938 C 211.851562 234.257812 210.984375 234.71875 210.074219 235.09375 C 209.167969 235.472656 208.226562 235.757812 207.261719 235.949219 C 206.296875 236.140625 205.320312 236.238281 204.335938 236.238281 L 174.339844 236.238281 L 174.339844 191.242188 C 174.339844 190.75 174.292969 190.265625 174.195312 189.78125 C 174.101562 189.296875 173.957031 188.828125 173.769531 188.375 C 173.582031 187.917969 173.351562 187.488281 173.078125 187.078125 C 172.804688 186.667969 172.492188 186.289062 172.144531 185.941406 C 171.796875 185.59375 171.417969 185.28125 171.007812 185.007812 C 170.597656 184.734375 170.167969 184.503906 169.710938 184.316406 C 169.257812 184.128906 168.789062 183.984375 168.304688 183.890625 C 167.824219 183.792969 167.335938 183.746094 166.84375 183.746094 L 136.847656 183.746094 C 136.355469 183.746094 135.867188 183.792969 135.382812 183.890625 C 134.902344 183.984375 134.433594 184.128906 133.976562 184.316406 C 133.523438 184.503906 133.089844 184.734375 132.679688 185.007812 C 132.269531 185.28125 131.894531 185.59375 131.542969 185.941406 C 131.195312 186.289062 130.886719 186.667969 130.613281 187.078125 C 130.339844 187.488281 130.105469 187.917969 129.917969 188.375 C 129.730469 188.828125 129.589844 189.296875 129.492188 189.78125 C 129.394531 190.265625 129.347656 190.75 129.347656 191.242188 L 129.347656 236.238281 L 99.351562 236.238281 C 98.367188 236.238281 97.394531 236.140625 96.425781 235.949219 C 95.460938 235.757812 94.523438 235.472656 93.613281 235.09375 C 92.703125 234.71875 91.839844 234.257812 91.019531 233.710938 C 90.203125 233.164062 89.445312 232.539062 88.746094 231.84375 C 88.050781 231.148438 87.429688 230.390625 86.882812 229.570312 C 86.335938 228.753906 85.875 227.886719 85.496094 226.980469 C 85.121094 226.070312 84.835938 225.132812 84.644531 224.164062 C 84.449219 223.199219 84.355469 222.222656 84.355469 221.238281 L 84.355469 161.25 L 149.191406 96.414062 C 149.542969 96.0625 149.945312 95.789062 150.40625 95.601562 C 150.867188 95.410156 151.34375 95.316406 151.839844 95.316406 C 152.339844 95.316406 152.816406 95.410156 153.277344 95.601562 C 153.734375 95.789062 154.140625 96.0625 154.492188 96.414062 Z M 166.84375 191.242188 L 166.84375 236.238281 L 136.847656 236.238281 L 136.847656 191.242188 Z M 166.84375 191.242188 " fill-opacity="1" fill-rule="nonzero"/></g></svg>