<svg xmlns="http://www.w3.org/2000/svg" xmlns:xlink="http://www.w3.org/1999/xlink" width="400" zoomAndPan="magnify" viewBox="0 0 300 299.999988" height="400" preserveAspectRatio="xMidYMid meet" version="1.0"><defs><g/><clipPath id="id1"><path d="M 167 50.894531 L 250.523438 50.894531 L 250.523438 203 L 167 203 Z M 167 50.894531 " clip-rule="nonzero"/></clipPath><clipPath id="id2"><path d="M 85.199219 50.894531 L 217 50.894531 L 217 216.21875 L 85.199219 216.21875 Z M 85.199219 50.894531 " clip-rule="nonzero"/></clipPath><clipPath id="id3"><path d="M 167 50.894531 L 168 50.894531 L 168 93 L 167 93 Z M 167 50.894531 " clip-rule="nonzero"/></clipPath></defs><g fill="#000000" fill-opacity="1"><g transform="translate(5.122984, 161.862309)"><g><path d="M 6.960938 -8.285156 L 6.960938 -1.476562 L 1.835938 -8.285156 L 1.007812 -8.285156 L 1.007812 0 L 1.890625 0 L 1.890625 -6.808594 L 7 0 L 7.828125 0 L 7.828125 -8.285156 Z M 6.960938 -8.285156 "/></g></g></g><g fill="#000000" fill-opacity="1"><g transform="translate(13.957461, 161.862309)"><g><path d="M 3.492188 0.109375 C 5.082031 0.109375 6.367188 -1.171875 6.367188 -2.761719 C 6.367188 -4.347656 5.082031 -5.632812 3.492188 -5.632812 C 1.90625 -5.632812 0.621094 -4.347656 0.621094 -2.761719 C 0.621094 -1.171875 1.90625 0.109375 3.492188 0.109375 Z M 3.492188 -0.746094 C 2.375 -0.746094 1.476562 -1.644531 1.476562 -2.761719 C 1.476562 -3.878906 2.375 -4.777344 3.492188 -4.777344 C 4.597656 -4.777344 5.507812 -3.878906 5.507812 -2.761719 C 5.507812 -1.644531 4.597656 -0.746094 3.492188 -0.746094 Z M 3.492188 -0.746094 "/></g></g></g><g fill="#000000" fill-opacity="1"><g transform="translate(20.942221, 161.862309)"><g><path d="M 3.203125 -5.632812 C 2.691406 -5.632812 2.222656 -5.425781 1.863281 -5.082031 L 1.863281 -5.523438 L 1.007812 -5.523438 L 1.007812 0 L 1.863281 0 L 1.863281 -3.519531 C 1.863281 -4.226562 2.429688 -4.777344 3.132812 -4.777344 C 3.839844 -4.777344 4.390625 -4.226562 4.390625 -3.519531 L 4.390625 0 L 5.246094 0 L 5.246094 -3.519531 C 5.246094 -4.695312 4.265625 -5.632812 3.203125 -5.632812 Z M 3.203125 -5.632812 "/></g></g></g><g fill="#000000" fill-opacity="1"><g transform="translate(27.126356, 161.862309)"><g><path d="M 0.550781 -2.457031 L 4.417969 -2.457031 L 4.417969 -3.285156 L 0.550781 -3.285156 Z M 0.550781 -2.457031 "/></g></g></g><g fill="#000000" fill-opacity="1"><g transform="translate(32.109552, 161.862309)"><g><path d="M 2.375 0.109375 C 3.339844 0.109375 4.140625 -0.539062 4.140625 -1.492188 C 4.140625 -2.484375 3.3125 -2.871094 2.597656 -3.160156 C 1.917969 -3.453125 1.574219 -3.605469 1.574219 -4.085938 C 1.574219 -4.554688 1.890625 -4.777344 2.347656 -4.777344 C 2.707031 -4.777344 3.023438 -4.625 3.175781 -4.335938 L 3.921875 -4.722656 C 3.714844 -5.21875 3.011719 -5.632812 2.304688 -5.632812 C 1.492188 -5.632812 0.703125 -5.066406 0.703125 -4.058594 C 0.703125 -3.191406 1.285156 -2.746094 2.265625 -2.375 C 2.925781 -2.113281 3.285156 -1.933594 3.285156 -1.492188 C 3.285156 -1.007812 2.871094 -0.730469 2.375 -0.730469 C 1.863281 -0.730469 1.367188 -1.023438 1.285156 -1.421875 L 0.457031 -1.089844 C 0.664062 -0.429688 1.492188 0.109375 2.375 0.109375 Z M 2.375 0.109375 "/></g></g></g><g fill="#000000" fill-opacity="1"><g transform="translate(36.678632, 161.862309)"><g><path d="M 6.367188 -2.816406 C 6.324219 -4.40625 5.066406 -5.632812 3.492188 -5.632812 C 1.90625 -5.632812 0.621094 -4.347656 0.621094 -2.761719 C 0.621094 -1.171875 1.90625 0.109375 3.492188 0.109375 C 4.804688 0.109375 5.894531 -0.757812 6.253906 -1.945312 L 5.34375 -1.945312 C 5.039062 -1.230469 4.320312 -0.746094 3.492188 -0.746094 C 2.402344 -0.746094 1.53125 -1.574219 1.476562 -2.636719 L 6.351562 -2.636719 Z M 3.492188 -4.777344 C 4.378906 -4.777344 5.121094 -4.210938 5.386719 -3.410156 L 1.589844 -3.410156 C 1.863281 -4.210938 2.609375 -4.777344 3.492188 -4.777344 Z M 3.492188 -4.777344 "/></g></g></g><g fill="#000000" fill-opacity="1"><g transform="translate(43.608176, 161.862309)"><g><path d="M 4.460938 -5.523438 L 2.761719 -0.996094 L 1.050781 -5.523438 L 0.125 -5.523438 L 2.332031 0 L 3.160156 0 L 5.386719 -5.523438 Z M 4.460938 -5.523438 "/></g></g></g><g fill="#000000" fill-opacity="1"><g transform="translate(49.115921, 161.862309)"><g><path d="M 6.367188 -2.816406 C 6.324219 -4.40625 5.066406 -5.632812 3.492188 -5.632812 C 1.90625 -5.632812 0.621094 -4.347656 0.621094 -2.761719 C 0.621094 -1.171875 1.90625 0.109375 3.492188 0.109375 C 4.804688 0.109375 5.894531 -0.757812 6.253906 -1.945312 L 5.34375 -1.945312 C 5.039062 -1.230469 4.320312 -0.746094 3.492188 -0.746094 C 2.402344 -0.746094 1.53125 -1.574219 1.476562 -2.636719 L 6.351562 -2.636719 Z M 3.492188 -4.777344 C 4.378906 -4.777344 5.121094 -4.210938 5.386719 -3.410156 L 1.589844 -3.410156 C 1.863281 -4.210938 2.609375 -4.777344 3.492188 -4.777344 Z M 3.492188 -4.777344 "/></g></g></g><g fill="#000000" fill-opacity="1"><g transform="translate(56.045464, 161.862309)"><g><path d="M 3.699219 -5.632812 C 2.914062 -5.632812 2.277344 -5.289062 1.863281 -4.734375 L 1.863281 -5.523438 L 1.007812 -5.523438 L 1.007812 0 L 1.863281 0 L 1.863281 -2.996094 C 1.863281 -4.003906 2.691406 -4.777344 3.699219 -4.777344 C 3.867188 -4.777344 4.003906 -4.765625 4.128906 -4.722656 L 4.128906 -5.59375 C 4.003906 -5.621094 3.867188 -5.632812 3.699219 -5.632812 Z M 3.699219 -5.632812 "/></g></g></g><g fill="#000000" fill-opacity="1"><g transform="translate(60.241842, 161.862309)"><g><path d="M 6.367188 -2.816406 C 6.324219 -4.40625 5.066406 -5.632812 3.492188 -5.632812 C 1.90625 -5.632812 0.621094 -4.347656 0.621094 -2.761719 C 0.621094 -1.171875 1.90625 0.109375 3.492188 0.109375 C 4.804688 0.109375 5.894531 -0.757812 6.253906 -1.945312 L 5.34375 -1.945312 C 5.039062 -1.230469 4.320312 -0.746094 3.492188 -0.746094 C 2.402344 -0.746094 1.53125 -1.574219 1.476562 -2.636719 L 6.351562 -2.636719 Z M 3.492188 -4.777344 C 4.378906 -4.777344 5.121094 -4.210938 5.386719 -3.410156 L 1.589844 -3.410156 C 1.863281 -4.210938 2.609375 -4.777344 3.492188 -4.777344 Z M 3.492188 -4.777344 "/></g></g></g><g fill="#000000" fill-opacity="1"><g transform="translate(24.509736, 177.292493)"><g><path d="M 6.558594 -2.859375 C 6.476562 -4.488281 5.027344 -5.523438 3.769531 -5.507812 C 3.492188 -5.507812 3.257812 -5.453125 3.078125 -5.386719 L 5.507812 -8.285156 L 4.40625 -8.285156 L 1.476562 -4.597656 C 1.035156 -4.046875 0.730469 -3.367188 0.773438 -2.597656 C 0.84375 -1.050781 2.183594 0.164062 3.796875 0.0820312 C 5.371094 0 6.628906 -1.285156 6.558594 -2.859375 Z M 3.785156 -0.773438 C 2.609375 -0.703125 1.710938 -1.476562 1.644531 -2.609375 C 1.574219 -3.785156 2.375 -4.695312 3.546875 -4.765625 C 4.707031 -4.832031 5.621094 -4.019531 5.6875 -2.84375 C 5.757812 -1.726562 4.957031 -0.84375 3.785156 -0.773438 Z M 3.785156 -0.773438 "/></g></g></g><g fill="#000000" fill-opacity="1"><g transform="translate(31.825789, 177.292493)"><g><path d="M 3.839844 0.109375 C 5.757812 0.109375 6.820312 -1.710938 6.820312 -4.140625 C 6.820312 -6.574219 5.757812 -8.394531 3.839844 -8.394531 C 1.917969 -8.394531 0.871094 -6.574219 0.871094 -4.140625 C 0.871094 -1.710938 1.917969 0.109375 3.839844 0.109375 Z M 3.851562 -0.773438 C 2.457031 -0.773438 1.765625 -2.183594 1.765625 -4.140625 C 1.765625 -6.101562 2.457031 -7.511719 3.851562 -7.511719 C 5.234375 -7.511719 5.9375 -6.101562 5.9375 -4.140625 C 5.9375 -2.183594 5.234375 -0.773438 3.851562 -0.773438 Z M 3.851562 -0.773438 "/></g></g></g><g fill="#000000" fill-opacity="1"><g transform="translate(39.514545, 177.292493)"><g><path d="M 2.195312 -4.972656 C 3.011719 -4.972656 3.671875 -5.730469 3.671875 -6.667969 C 3.671875 -7.621094 3.011719 -8.394531 2.195312 -8.394531 C 1.367188 -8.394531 0.703125 -7.621094 0.703125 -6.667969 C 0.703125 -5.730469 1.367188 -4.972656 2.195312 -4.972656 Z M 0.84375 0 L 1.738281 0 L 7.429688 -8.285156 L 6.53125 -8.285156 Z M 2.195312 -5.632812 C 1.753906 -5.632812 1.378906 -6.089844 1.378906 -6.667969 C 1.378906 -7.261719 1.753906 -7.734375 2.195312 -7.734375 C 2.625 -7.734375 3.011719 -7.261719 3.011719 -6.667969 C 3.011719 -6.089844 2.625 -5.632812 2.195312 -5.632812 Z M 6.089844 0.109375 C 6.917969 0.109375 7.566406 -0.664062 7.566406 -1.617188 C 7.566406 -2.554688 6.917969 -3.3125 6.089844 -3.3125 C 5.261719 -3.3125 4.597656 -2.554688 4.597656 -1.617188 C 4.597656 -0.664062 5.261719 0.109375 6.089844 0.109375 Z M 6.089844 -0.550781 C 5.648438 -0.550781 5.273438 -1.023438 5.273438 -1.617188 C 5.273438 -2.195312 5.648438 -2.652344 6.089844 -2.652344 C 6.515625 -2.652344 6.890625 -2.195312 6.890625 -1.617188 C 6.890625 -1.023438 6.515625 -0.550781 6.089844 -0.550781 Z M 6.089844 -0.550781 "/></g></g></g><g fill="#000000" fill-opacity="1"><g transform="translate(248.610539, 96.435597)"><g><path d="M 3.09375 0.109375 C 4.5 0.109375 5.648438 -0.730469 5.648438 -2.183594 C 5.648438 -5 1.617188 -4.308594 1.617188 -6.28125 C 1.617188 -7.109375 2.292969 -7.511719 3.066406 -7.511719 C 3.699219 -7.511719 4.226562 -7.25 4.554688 -6.78125 L 5.246094 -7.359375 C 4.792969 -7.941406 3.992188 -8.394531 3.039062 -8.394531 C 1.765625 -8.394531 0.730469 -7.566406 0.730469 -6.214844 C 0.730469 -3.546875 4.765625 -4.210938 4.765625 -2.152344 C 4.765625 -1.269531 4.03125 -0.773438 3.105469 -0.773438 C 2.167969 -0.773438 1.492188 -1.285156 1.203125 -2.042969 L 0.402344 -1.574219 C 0.828125 -0.550781 1.863281 0.109375 3.09375 0.109375 Z M 3.09375 0.109375 "/></g></g></g><g fill="#000000" fill-opacity="1"><g transform="translate(254.656635, 96.435597)"><g><path d="M 6.367188 -2.816406 C 6.324219 -4.40625 5.066406 -5.632812 3.492188 -5.632812 C 1.90625 -5.632812 0.621094 -4.347656 0.621094 -2.761719 C 0.621094 -1.171875 1.90625 0.109375 3.492188 0.109375 C 4.804688 0.109375 5.894531 -0.757812 6.253906 -1.945312 L 5.34375 -1.945312 C 5.039062 -1.230469 4.320312 -0.746094 3.492188 -0.746094 C 2.402344 -0.746094 1.53125 -1.574219 1.476562 -2.636719 L 6.351562 -2.636719 Z M 3.492188 -4.777344 C 4.378906 -4.777344 5.121094 -4.210938 5.386719 -3.410156 L 1.589844 -3.410156 C 1.863281 -4.210938 2.609375 -4.777344 3.492188 -4.777344 Z M 3.492188 -4.777344 "/></g></g></g><g fill="#000000" fill-opacity="1"><g transform="translate(261.586179, 96.435597)"><g><path d="M 4.460938 -5.523438 L 2.761719 -0.996094 L 1.050781 -5.523438 L 0.125 -5.523438 L 2.332031 0 L 3.160156 0 L 5.386719 -5.523438 Z M 4.460938 -5.523438 "/></g></g></g><g fill="#000000" fill-opacity="1"><g transform="translate(267.093924, 96.435597)"><g><path d="M 6.367188 -2.816406 C 6.324219 -4.40625 5.066406 -5.632812 3.492188 -5.632812 C 1.90625 -5.632812 0.621094 -4.347656 0.621094 -2.761719 C 0.621094 -1.171875 1.90625 0.109375 3.492188 0.109375 C 4.804688 0.109375 5.894531 -0.757812 6.253906 -1.945312 L 5.34375 -1.945312 C 5.039062 -1.230469 4.320312 -0.746094 3.492188 -0.746094 C 2.402344 -0.746094 1.53125 -1.574219 1.476562 -2.636719 L 6.351562 -2.636719 Z M 3.492188 -4.777344 C 4.378906 -4.777344 5.121094 -4.210938 5.386719 -3.410156 L 1.589844 -3.410156 C 1.863281 -4.210938 2.609375 -4.777344 3.492188 -4.777344 Z M 3.492188 -4.777344 "/></g></g></g><g fill="#000000" fill-opacity="1"><g transform="translate(274.023467, 96.435597)"><g><path d="M 3.699219 -5.632812 C 2.914062 -5.632812 2.277344 -5.289062 1.863281 -4.734375 L 1.863281 -5.523438 L 1.007812 -5.523438 L 1.007812 0 L 1.863281 0 L 1.863281 -2.996094 C 1.863281 -4.003906 2.691406 -4.777344 3.699219 -4.777344 C 3.867188 -4.777344 4.003906 -4.765625 4.128906 -4.722656 L 4.128906 -5.59375 C 4.003906 -5.621094 3.867188 -5.632812 3.699219 -5.632812 Z M 3.699219 -5.632812 "/></g></g></g><g fill="#000000" fill-opacity="1"><g transform="translate(278.219845, 96.435597)"><g><path d="M 6.367188 -2.816406 C 6.324219 -4.40625 5.066406 -5.632812 3.492188 -5.632812 C 1.90625 -5.632812 0.621094 -4.347656 0.621094 -2.761719 C 0.621094 -1.171875 1.90625 0.109375 3.492188 0.109375 C 4.804688 0.109375 5.894531 -0.757812 6.253906 -1.945312 L 5.34375 -1.945312 C 5.039062 -1.230469 4.320312 -0.746094 3.492188 -0.746094 C 2.402344 -0.746094 1.53125 -1.574219 1.476562 -2.636719 L 6.351562 -2.636719 Z M 3.492188 -4.777344 C 4.378906 -4.777344 5.121094 -4.210938 5.386719 -3.410156 L 1.589844 -3.410156 C 1.863281 -4.210938 2.609375 -4.777344 3.492188 -4.777344 Z M 3.492188 -4.777344 "/></g></g></g><g fill="#000000" fill-opacity="1"><g transform="translate(285.145289, 96.435597)"><g/></g></g><g fill="#000000" fill-opacity="1"><g transform="translate(257.135027, 111.865781)"><g><path d="M 6.101562 -2.625 L 5.234375 -2.625 L 5.234375 -8.285156 L 4.140625 -8.285156 L 0.34375 -1.738281 L 4.347656 -1.738281 L 4.347656 0 L 5.234375 0 L 5.234375 -1.738281 L 6.101562 -1.738281 Z M 1.710938 -2.625 L 4.347656 -7.261719 L 4.347656 -2.625 Z M 1.710938 -2.625 "/></g></g></g><g fill="#000000" fill-opacity="1"><g transform="translate(263.995552, 111.865781)"><g><path d="M 3.839844 0.109375 C 5.757812 0.109375 6.820312 -1.710938 6.820312 -4.140625 C 6.820312 -6.574219 5.757812 -8.394531 3.839844 -8.394531 C 1.917969 -8.394531 0.871094 -6.574219 0.871094 -4.140625 C 0.871094 -1.710938 1.917969 0.109375 3.839844 0.109375 Z M 3.851562 -0.773438 C 2.457031 -0.773438 1.765625 -2.183594 1.765625 -4.140625 C 1.765625 -6.101562 2.457031 -7.511719 3.851562 -7.511719 C 5.234375 -7.511719 5.9375 -6.101562 5.9375 -4.140625 C 5.9375 -2.183594 5.234375 -0.773438 3.851562 -0.773438 Z M 3.851562 -0.773438 "/></g></g></g><g fill="#000000" fill-opacity="1"><g transform="translate(271.684308, 111.865781)"><g><path d="M 2.195312 -4.972656 C 3.011719 -4.972656 3.671875 -5.730469 3.671875 -6.667969 C 3.671875 -7.621094 3.011719 -8.394531 2.195312 -8.394531 C 1.367188 -8.394531 0.703125 -7.621094 0.703125 -6.667969 C 0.703125 -5.730469 1.367188 -4.972656 2.195312 -4.972656 Z M 0.84375 0 L 1.738281 0 L 7.429688 -8.285156 L 6.53125 -8.285156 Z M 2.195312 -5.632812 C 1.753906 -5.632812 1.378906 -6.089844 1.378906 -6.667969 C 1.378906 -7.261719 1.753906 -7.734375 2.195312 -7.734375 C 2.625 -7.734375 3.011719 -7.261719 3.011719 -6.667969 C 3.011719 -6.089844 2.625 -5.632812 2.195312 -5.632812 Z M 6.089844 0.109375 C 6.917969 0.109375 7.566406 -0.664062 7.566406 -1.617188 C 7.566406 -2.554688 6.917969 -3.3125 6.089844 -3.3125 C 5.261719 -3.3125 4.597656 -2.554688 4.597656 -1.617188 C 4.597656 -0.664062 5.261719 0.109375 6.089844 0.109375 Z M 6.089844 -0.550781 C 5.648438 -0.550781 5.273438 -1.023438 5.273438 -1.617188 C 5.273438 -2.195312 5.648438 -2.652344 6.089844 -2.652344 C 6.515625 -2.652344 6.890625 -2.195312 6.890625 -1.617188 C 6.890625 -1.023438 6.515625 -0.550781 6.089844 -0.550781 Z M 6.089844 -0.550781 "/></g></g></g><g clip-path="url(#id1)"><path fill="#135e6f" d="M 167.863281 50.894531 C 170.070312 50.894531 172.273438 50.984375 174.476562 51.160156 C 176.675781 51.335938 178.867188 51.601562 181.046875 51.953125 C 183.226562 52.304688 185.390625 52.746094 187.535156 53.269531 C 189.679688 53.796875 191.800781 54.40625 193.898438 55.101562 C 195.992188 55.796875 198.058594 56.574219 200.089844 57.4375 C 202.125 58.296875 204.121094 59.238281 206.078125 60.257812 C 208.035156 61.28125 209.949219 62.378906 211.820312 63.550781 C 213.691406 64.726562 215.511719 65.972656 217.28125 67.292969 C 219.050781 68.613281 220.765625 70.003906 222.425781 71.460938 C 224.085938 72.917969 225.683594 74.441406 227.21875 76.027344 C 228.753906 77.613281 230.226562 79.257812 231.632812 80.960938 C 233.035156 82.664062 234.371094 84.421875 235.636719 86.230469 C 236.898438 88.042969 238.089844 89.898438 239.207031 91.804688 C 240.320312 93.710938 241.359375 95.660156 242.316406 97.648438 C 243.277344 99.636719 244.15625 101.664062 244.953125 103.722656 C 245.75 105.78125 246.460938 107.867188 247.09375 109.984375 C 247.722656 112.101562 248.265625 114.242188 248.722656 116.402344 C 249.183594 118.5625 249.554688 120.738281 249.835938 122.925781 C 250.121094 125.117188 250.316406 127.3125 250.425781 129.519531 C 250.53125 131.726562 250.550781 133.933594 250.484375 136.140625 C 250.414062 138.347656 250.257812 140.546875 250.011719 142.742188 C 249.765625 144.9375 249.433594 147.117188 249.011719 149.285156 C 248.59375 151.453125 248.085938 153.601562 247.496094 155.730469 C 246.902344 157.855469 246.226562 159.957031 245.464844 162.03125 C 244.703125 164.101562 243.863281 166.140625 242.9375 168.148438 C 242.015625 170.152344 241.011719 172.117188 239.929688 174.042969 C 238.847656 175.96875 237.691406 177.847656 236.457031 179.679688 C 235.226562 181.515625 233.921875 183.292969 232.546875 185.023438 C 231.171875 186.75 229.730469 188.421875 228.222656 190.03125 C 226.714844 191.644531 225.144531 193.195312 223.507812 194.683594 C 221.875 196.167969 220.1875 197.585938 218.441406 198.9375 C 216.695312 200.289062 214.894531 201.570312 213.046875 202.777344 L 190.453125 168.167969 C 191.378906 167.5625 192.277344 166.921875 193.152344 166.246094 C 194.023438 165.570312 194.871094 164.863281 195.6875 164.117188 C 196.503906 163.375 197.289062 162.601562 198.042969 161.792969 C 198.796875 160.988281 199.515625 160.152344 200.203125 159.289062 C 200.890625 158.425781 201.542969 157.535156 202.160156 156.617188 C 202.777344 155.703125 203.355469 154.761719 203.894531 153.800781 C 204.4375 152.835938 204.9375 151.855469 205.398438 150.851562 C 205.863281 149.847656 206.285156 148.828125 206.664062 147.792969 C 207.042969 146.757812 207.382812 145.707031 207.679688 144.644531 C 207.972656 143.578125 208.226562 142.503906 208.4375 141.421875 C 208.648438 140.335938 208.8125 139.246094 208.9375 138.148438 C 209.058594 137.050781 209.136719 135.953125 209.171875 134.847656 C 209.207031 133.746094 209.199219 132.640625 209.144531 131.539062 C 209.089844 130.433594 208.992188 129.335938 208.851562 128.242188 C 208.707031 127.144531 208.523438 126.058594 208.292969 124.980469 C 208.0625 123.898438 207.792969 122.828125 207.476562 121.769531 C 207.164062 120.710938 206.804688 119.667969 206.40625 118.640625 C 206.007812 117.609375 205.570312 116.597656 205.089844 115.601562 C 204.609375 114.609375 204.089844 113.632812 203.535156 112.679688 C 202.976562 111.726562 202.382812 110.800781 201.75 109.894531 C 201.117188 108.988281 200.449219 108.109375 199.746094 107.257812 C 199.042969 106.40625 198.308594 105.585938 197.539062 104.792969 C 196.773438 104 195.972656 103.238281 195.144531 102.507812 C 194.3125 101.78125 193.457031 101.085938 192.570312 100.425781 C 191.6875 99.765625 190.777344 99.140625 189.839844 98.554688 C 188.90625 97.96875 187.949219 97.417969 186.96875 96.90625 C 185.992188 96.398438 184.992188 95.925781 183.976562 95.496094 C 182.960938 95.066406 181.925781 94.675781 180.878906 94.328125 C 179.832031 93.980469 178.769531 93.675781 177.699219 93.414062 C 176.625 93.152344 175.546875 92.929688 174.457031 92.753906 C 173.363281 92.578125 172.269531 92.445312 171.167969 92.359375 C 170.070312 92.269531 168.964844 92.226562 167.863281 92.226562 Z M 167.863281 50.894531 " fill-opacity="1" fill-rule="nonzero"/></g><g clip-path="url(#id2)"><path fill="#5d809a" d="M 216.449219 200.429688 C 215.136719 201.386719 213.796875 202.300781 212.429688 203.175781 C 211.0625 204.050781 209.667969 204.886719 208.253906 205.679688 C 206.835938 206.472656 205.398438 207.222656 203.9375 207.929688 C 202.476562 208.640625 200.996094 209.304688 199.496094 209.925781 C 197.996094 210.546875 196.480469 211.125 194.945312 211.65625 C 193.410156 212.1875 191.863281 212.671875 190.300781 213.113281 C 188.738281 213.554688 187.164062 213.949219 185.578125 214.296875 C 183.992188 214.644531 182.398438 214.945312 180.792969 215.199219 C 179.191406 215.453125 177.582031 215.660156 175.964844 215.820312 C 174.351562 215.980469 172.730469 216.089844 171.109375 216.15625 C 169.488281 216.21875 167.863281 216.234375 166.242188 216.203125 C 164.617188 216.171875 162.996094 216.089844 161.378906 215.964844 C 159.757812 215.835938 158.144531 215.660156 156.539062 215.4375 C 154.929688 215.214844 153.328125 214.945312 151.738281 214.628906 C 150.144531 214.3125 148.5625 213.949219 146.992188 213.539062 C 145.421875 213.128906 143.863281 212.675781 142.320312 212.171875 C 140.777344 211.671875 139.25 211.125 137.738281 210.53125 C 136.222656 209.941406 134.730469 209.304688 133.257812 208.625 C 131.78125 207.945312 130.328125 207.222656 128.898438 206.457031 C 127.464844 205.695312 126.058594 204.886719 124.671875 204.039062 C 123.289062 203.191406 121.929688 202.300781 120.597656 201.375 C 119.265625 200.445312 117.964844 199.480469 116.6875 198.472656 C 115.414062 197.46875 114.167969 196.425781 112.957031 195.347656 C 111.742188 194.269531 110.5625 193.15625 109.414062 192.007812 C 108.265625 190.863281 107.152344 189.679688 106.074219 188.46875 C 104.996094 187.253906 103.953125 186.007812 102.949219 184.734375 C 101.945312 183.460938 100.976562 182.15625 100.046875 180.824219 C 99.121094 179.492188 98.230469 178.132812 97.382812 176.75 C 96.535156 175.367188 95.726562 173.957031 94.960938 172.527344 C 94.199219 171.09375 93.476562 169.640625 92.796875 168.167969 C 92.117188 166.691406 91.480469 165.199219 90.886719 163.6875 C 90.296875 162.175781 89.75 160.648438 89.246094 159.105469 C 88.746094 157.558594 88.289062 156.003906 87.878906 154.429688 C 87.46875 152.859375 87.105469 151.277344 86.789062 149.6875 C 86.472656 148.09375 86.203125 146.492188 85.980469 144.886719 C 85.757812 143.277344 85.585938 141.664062 85.457031 140.042969 C 85.328125 138.425781 85.25 136.804688 85.21875 135.183594 C 85.1875 133.558594 85.203125 131.9375 85.265625 130.3125 C 85.328125 128.691406 85.441406 127.070312 85.601562 125.457031 C 85.757812 123.839844 85.964844 122.230469 86.21875 120.628906 C 86.472656 119.023438 86.773438 117.429688 87.121094 115.84375 C 87.46875 114.257812 87.863281 112.683594 88.304688 111.121094 C 88.746094 109.558594 89.230469 108.007812 89.765625 106.476562 C 90.296875 104.941406 90.871094 103.425781 91.492188 101.925781 C 92.113281 100.425781 92.78125 98.945312 93.488281 97.484375 C 94.195312 96.023438 94.945312 94.582031 95.738281 93.167969 C 96.535156 91.75 97.367188 90.359375 98.242188 88.992188 C 99.117188 87.625 100.03125 86.285156 100.988281 84.96875 C 101.941406 83.65625 102.933594 82.371094 103.960938 81.117188 C 104.992188 79.863281 106.058594 78.636719 107.160156 77.445312 C 108.261719 76.253906 109.398438 75.09375 110.570312 73.96875 C 111.738281 72.84375 112.941406 71.753906 114.175781 70.699219 C 115.410156 69.644531 116.675781 68.628906 117.96875 67.648438 C 119.261719 66.667969 120.585938 65.726562 121.933594 64.824219 C 123.285156 63.925781 124.660156 63.0625 126.058594 62.242188 C 127.460938 61.421875 128.882812 60.640625 130.332031 59.90625 C 131.777344 59.167969 133.242188 58.472656 134.730469 57.824219 C 136.21875 57.171875 137.722656 56.566406 139.246094 56.003906 C 140.769531 55.441406 142.308594 54.925781 143.859375 54.453125 C 145.414062 53.984375 146.980469 53.558594 148.558594 53.179688 C 150.136719 52.800781 151.726562 52.46875 153.324219 52.183594 C 154.921875 51.898438 156.527344 51.660156 158.140625 51.46875 C 159.75 51.277344 161.367188 51.132812 162.988281 51.039062 C 164.609375 50.941406 166.230469 50.894531 167.855469 50.894531 L 167.859375 92.226562 C 167.046875 92.226562 166.234375 92.25 165.425781 92.296875 C 164.613281 92.34375 163.804688 92.417969 163 92.511719 C 162.195312 92.609375 161.390625 92.726562 160.59375 92.871094 C 159.792969 93.011719 159 93.179688 158.210938 93.367188 C 157.421875 93.558594 156.636719 93.769531 155.859375 94.007812 C 155.082031 94.242188 154.316406 94.5 153.554688 94.78125 C 152.792969 95.0625 152.039062 95.367188 151.296875 95.691406 C 150.550781 96.015625 149.816406 96.363281 149.09375 96.730469 C 148.371094 97.101562 147.660156 97.488281 146.960938 97.902344 C 146.257812 98.3125 145.570312 98.742188 144.898438 99.191406 C 144.222656 99.644531 143.5625 100.113281 142.914062 100.605469 C 142.265625 101.09375 141.632812 101.601562 141.015625 102.128906 C 140.398438 102.65625 139.800781 103.203125 139.214844 103.765625 C 138.628906 104.328125 138.0625 104.90625 137.507812 105.503906 C 136.957031 106.097656 136.425781 106.710938 135.910156 107.339844 C 135.394531 107.964844 134.898438 108.609375 134.421875 109.265625 C 133.945312 109.921875 133.488281 110.59375 133.050781 111.277344 C 132.613281 111.960938 132.195312 112.65625 131.800781 113.363281 C 131.402344 114.070312 131.027344 114.792969 130.671875 115.523438 C 130.320312 116.253906 129.988281 116.992188 129.675781 117.742188 C 129.367188 118.492188 129.078125 119.25 128.8125 120.019531 C 128.546875 120.785156 128.300781 121.558594 128.082031 122.339844 C 127.863281 123.121094 127.664062 123.910156 127.492188 124.703125 C 127.316406 125.496094 127.167969 126.292969 127.039062 127.09375 C 126.914062 127.894531 126.808594 128.699219 126.730469 129.507812 C 126.652344 130.316406 126.59375 131.125 126.5625 131.9375 C 126.53125 132.746094 126.523438 133.558594 126.539062 134.371094 C 126.554688 135.183594 126.59375 135.992188 126.660156 136.800781 C 126.722656 137.609375 126.808594 138.417969 126.921875 139.222656 C 127.03125 140.027344 127.167969 140.824219 127.324219 141.621094 C 127.484375 142.417969 127.664062 143.207031 127.871094 143.996094 C 128.074219 144.78125 128.304688 145.558594 128.554688 146.332031 C 128.804688 147.101562 129.078125 147.867188 129.375 148.621094 C 129.671875 149.378906 129.988281 150.125 130.328125 150.863281 C 130.667969 151.597656 131.03125 152.324219 131.414062 153.042969 C 131.796875 153.757812 132.199219 154.460938 132.621094 155.152344 C 133.046875 155.84375 133.492188 156.523438 133.957031 157.191406 C 134.417969 157.855469 134.902344 158.507812 135.40625 159.144531 C 135.90625 159.78125 136.429688 160.40625 136.96875 161.011719 C 137.507812 161.617188 138.0625 162.207031 138.636719 162.78125 C 139.210938 163.355469 139.800781 163.914062 140.410156 164.453125 C 141.015625 164.992188 141.636719 165.511719 142.277344 166.015625 C 142.914062 166.519531 143.566406 167 144.230469 167.464844 C 144.898438 167.929688 145.574219 168.375 146.269531 168.796875 C 146.960938 169.222656 147.664062 169.625 148.378906 170.007812 C 149.097656 170.390625 149.824219 170.75 150.558594 171.089844 C 151.296875 171.429688 152.042969 171.75 152.800781 172.042969 C 153.554688 172.339844 154.320312 172.613281 155.089844 172.863281 C 155.863281 173.117188 156.640625 173.34375 157.425781 173.546875 C 158.210938 173.753906 159.003906 173.933594 159.800781 174.09375 C 160.597656 174.25 161.394531 174.386719 162.199219 174.496094 C 163.003906 174.609375 163.8125 174.695312 164.621094 174.761719 C 165.429688 174.824219 166.238281 174.863281 167.050781 174.878906 C 167.863281 174.894531 168.675781 174.886719 169.484375 174.855469 C 170.296875 174.824219 171.105469 174.769531 171.914062 174.6875 C 172.722656 174.609375 173.527344 174.503906 174.328125 174.378906 C 175.128906 174.25 175.925781 174.101562 176.71875 173.925781 C 177.511719 173.753906 178.300781 173.554688 179.082031 173.335938 C 179.863281 173.113281 180.636719 172.871094 181.402344 172.605469 C 182.171875 172.339844 182.929688 172.050781 183.679688 171.742188 C 184.429688 171.429688 185.167969 171.097656 185.898438 170.742188 C 186.628906 170.390625 187.347656 170.015625 188.058594 169.617188 C 188.765625 169.222656 189.460938 168.804688 190.144531 168.367188 C 190.828125 167.929688 191.5 167.472656 192.15625 166.992188 Z M 216.449219 200.429688 " fill-opacity="1" fill-rule="nonzero"/></g><g clip-path="url(#id3)"><path fill="#99a3be" d="M 167.863281 50.894531 C 167.859375 50.894531 167.863281 50.894531 167.871094 50.894531 L 167.867188 92.226562 C 167.867188 92.226562 167.863281 92.226562 167.863281 92.226562 Z M 167.863281 50.894531 " fill-opacity="1" fill-rule="nonzero"/></g></svg>